<?xml version="1.0" encoding="UTF-8"?>
<!--
  Drawbridge brand mark, authored on a 64 x 64 grid.
  Keep the geometry in this file aligned with BrandMark.xaml,
  CastleIconFactory.cs, and tools/Generate-BrandAssets.ps1.
-->
<svg xmlns="http://www.w3.org/2000/svg" width="512" height="512" viewBox="0 0 64 64" role="img" aria-labelledby="title description">
  <title id="title">Drawbridge</title>
  <desc id="description">A bright castle gate and lowered blue drawbridge on a midnight shield.</desc>
  <defs>
    <linearGradient id="shield" x1="14" y1="6" x2="50" y2="59" gradientUnits="userSpaceOnUse">
      <stop offset="0" stop-color="#243A62" />
      <stop offset="0.58" stop-color="#14243E" />
      <stop offset="1" stop-color="#091321" />
    </linearGradient>
    <linearGradient id="bridge" x1="32" y1="34" x2="32" y2="53" gradientUnits="userSpaceOnUse">
      <stop offset="0" stop-color="#8ACBFF" />
      <stop offset="1" stop-color="#3E82F5" />
    </linearGradient>
  </defs>

  <path fill="url(#shield)" stroke="#577EB8" stroke-width="1.5" d="M32 3C42.5 3 52.5 6.2 58 10.5v18C58 43.2 48.2 55.6 32 61 15.8 55.6 6 43.2 6 28.5v-18C11.5 6.2 21.5 3 32 3Z" />

  <path fill="#F7FAFF" d="M12 45V19h4v4h4v-4h4v26H12Zm11 0V21h4v-4h4v4h4v-4h4v4h2v24H23Zm17 0V19h4v4h4v-4h4v26H40Z" />
  <path fill="#0C1728" d="M24 46V35c0-4.4 3.6-8 8-8s8 3.6 8 8v11H24Z" />

  <path fill="none" stroke="#75B9FF" stroke-width="1.75" stroke-linecap="round" opacity=".88" d="m18 27 7 20m21-20-7 20" />
  <path fill="url(#bridge)" stroke="#B8DDFF" stroke-width="1.15" stroke-linejoin="round" d="m27 35h10l7 18H20l7-18Z" />
  <path fill="none" stroke="#E5F2FF" stroke-width="1.2" stroke-linecap="round" opacity=".76" d="M24.7 41h14.6M22.5 47h19" />
</svg>
